<?xml version="1.0" encoding="UTF-8"?>
<svg width="800" height="900" viewBox="0 0 800 900" xmlns="http://www.w3.org/2000/svg">
  <!-- India outline -->
  <path d="M400,100 Q450,120 500,150 Q550,170 575,200 Q600,230 625,280 Q650,330 660,380 Q670,430 675,480 Q680,530 670,580 Q660,630 640,680 Q620,730 590,770 Q560,810 520,830 Q480,850 440,860 Q400,870 360,860 Q320,850 280,830 Q240,810 210,770 Q180,730 160,680 Q140,630 130,580 Q120,530 125,480 Q130,430 140,380 Q150,330 175,280 Q200,230 225,200 Q250,170 300,150 Q350,120 400,100 Z" 
        fill="#f8f9fa" stroke="#1d3557" stroke-width="2"/>
  
  <!-- Water bodies -->
  <path d="M125,480 Q130,430 140,380 Q150,330 175,280 L120,250 L90,300 L80,350 L75,400 L80,450 L90,500 L105,550 L125,480 Z" 
        fill="#a8dadc" stroke="#457b9d" stroke-width="1"/>
  
  <!-- State boundaries -->
  <g stroke="#666" stroke-width="0.5" fill="none">
    <!-- Northern states -->
    <path d="M400,100 Q350,120 300,150 L270,200 L290,250 L330,270 L370,260 L410,280 L440,260 L470,250 L500,260 L530,280 L550,260 L575,200 Q550,170 500,150 Q450,120 400,100 Z"/>
    <!-- Western states -->
    <path d="M175,280 Q200,230 225,200 Q250,170 300,150 L270,200 L290,250 L270,300 L240,330 L210,370 L190,420 L175,480 Q150,430 140,380 Q150,330 175,280 Z"/>
    <!-- Central states -->
    <path d="M290,250 L330,270 L370,260 L410,280 L440,320 L450,370 L430,420 L390,450 L340,470 L290,460 L250,430 L220,390 L210,370 L240,330 L270,300 L290,250 Z"/>
    <!-- Eastern states -->
    <path d="M440,260 L470,250 L500,260 L530,280 L560,320 L580,370 L570,430 L550,480 L520,520 L480,540 L440,550 L400,540 L370,520 L350,490 L340,470 L390,450 L430,420 L450,370 L440,320 L410,280 L440,260 Z"/>
    <!-- Southern states -->
    <path d="M190,420 L220,390 L250,430 L290,460 L340,470 L350,490 L370,520 L400,540 L440,550 L480,540 L520,520 L530,560 L520,600 L500,640 L470,670 L430,690 L390,700 L350,690 L310,670 L280,640 L260,600 L250,560 L230,510 L210,470 L190,420 Z"/>
  </g>
  
  <!-- Rivers -->
  <g stroke="#457b9d" stroke-width="1" fill="none">
    <path d="M400,100 L390,150 L400,200 L410,250 L400,300 L380,350 L390,400 L400,450 L410,500 L400,550 L390,600 L400,650 L420,700" 
          stroke-dasharray="2,2"/>
    <path d="M175,280 L230,300 L280,330 L320,350 L350,370 L380,350" 
          stroke-dasharray="2,2"/>
    <path d="M575,200 L530,230 L480,270 L450,320 L440,370 L450,420 L470,470 L480,520 L470,570 L450,620 L430,670 L430,690" 
          stroke-dasharray="2,2"/>
  </g>
  
  <!-- Major cities as dots -->
  <g>
    <!-- Mumbai -->
    <circle cx="210" cy="390" r="3" fill="#e63946"/>
    <text x="215" y="385" font-size="10" fill="#333">Mumbai</text>
    
    <!-- Delhi -->
    <circle cx="350" cy="220" r="3" fill="#e63946"/>
    <text x="355" y="215" font-size="10" fill="#333">Delhi</text>
    
    <!-- Bangalore -->
    <circle cx="330" cy="550" r="3" fill="#e63946"/>
    <text x="335" y="545" font-size="10" fill="#333">Bangalore</text>
    
    <!-- Chennai -->
    <circle cx="430" cy="570" r="3" fill="#e63946"/>
    <text x="435" y="565" font-size="10" fill="#333">Chennai</text>
    
    <!-- Kolkata -->
    <circle cx="520" cy="370" r="3" fill="#e63946"/>
    <text x="525" y="365" font-size="10" fill="#333">Kolkata</text>
    
    <!-- Hyderabad -->
    <circle cx="360" cy="450" r="3" fill="#e63946"/>
    <text x="365" y="445" font-size="10" fill="#333">Hyderabad</text>
  </g>
  
  <!-- Scale and compass -->
  <g transform="translate(650, 800)">
    <line x1="0" y1="0" x2="100" y2="0" stroke="#333" stroke-width="2"/>
    <text x="50" y="15" font-size="10" text-anchor="middle" fill="#333">500 km</text>
    
    <g transform="translate(-30, -30)">
      <circle cx="0" cy="0" r="15" fill="#f1faee" stroke="#333"/>
      <line x1="0" y1="-15" x2="0" y2="15" stroke="#333"/>
      <line x1="-15" y1="0" x2="15" y2="0" stroke="#333"/>
      <text x="0" y="-5" font-size="8" text-anchor="middle" fill="#333">N</text>
      <text x="10" y="0" font-size="8" text-anchor="middle" fill="#333">E</text>
      <text x="0" y="10" font-size="8" text-anchor="middle" fill="#333">S</text>
      <text x="-10" y="0" font-size="8" text-anchor="middle" fill="#333">W</text>
    </g>
  </g>
  
  <!-- Title -->
  <text x="400" y="50" font-size="24" text-anchor="middle" fill="#1d3557" font-weight="bold">India</text>
</svg>
